<?xml version="1.0" encoding="UTF-8" ?>
<!DOCTYPE svg PUBLIC "-//W3C//DTD SVG 1.1//EN" "http://www.w3.org/Graphics/SVG/1.1/DTD/svg11.dtd">
<svg width="535pt" height="1294pt" viewBox="0 0 535 1294" version="1.1" xmlns="http://www.w3.org/2000/svg">
<path fill="#095" d=" M 0.00 0.00 L 258.49 0.00 C 235.88 0.98 213.34 4.40 191.65 10.89 C 133.51 27.94 81.81 65.61 47.42 115.45 C 18.26 157.25 1.78 207.57 0.00 258.47 L 0.00 0.00 Z" />
<path fill="#fff" d=" M 258.49 0.00 L 276.52 0.00 C 309.78 1.32 342.84 8.49 373.38 21.78 C 424.75 43.89 468.75 82.59 497.36 130.63 C 520.67 169.43 533.59 214.26 535.00 259.47 L 535.00 275.57 C 533.72 313.58 524.49 351.35 507.54 385.43 C 479.80 441.88 431.49 487.86 373.74 512.77 C 359.13 519.12 343.94 524.11 328.45 527.79 C 333.29 577.60 338.26 627.39 343.11 677.20 C 395.05 677.25 447.00 677.21 498.94 677.22 C 498.97 702.15 498.95 727.07 498.96 751.99 C 491.87 752.01 484.79 751.99 477.72 752.01 C 491.78 929.82 505.97 1107.63 520.03 1285.45 C 495.19 1287.95 470.35 1290.57 445.51 1293.03 C 441.36 1240.32 437.16 1187.62 432.96 1134.91 C 348.55 1134.90 264.14 1134.91 179.72 1134.91 C 175.45 1187.62 171.38 1240.34 167.11 1293.05 C 142.28 1290.52 117.46 1287.98 92.64 1285.44 C 106.72 1107.63 120.83 929.82 135.00 752.01 C 127.89 751.99 120.78 752.01 113.67 752.00 C 113.67 727.08 113.66 702.16 113.68 677.24 C 165.13 677.19 216.58 677.27 268.03 677.20 C 263.25 629.63 258.72 582.05 253.91 534.48 C 213.03 532.50 172.67 520.87 137.00 500.82 C 92.18 475.75 54.84 437.54 30.87 392.12 C 11.89 356.54 1.51 316.57 0.00 276.31 L 0.00 258.47 C 1.78 207.57 18.26 157.25 47.42 115.45 C 81.81 65.61 133.51 27.94 191.65 10.89 C 213.34 4.40 235.88 0.98 258.49 0.00 Z" />
<path fill="#095" d=" M 276.52 0.00 L 535.00 0.00 L 535.00 259.47 C 533.59 214.26 520.67 169.43 497.36 130.63 C 468.75 82.59 424.75 43.89 373.38 21.78 C 342.84 8.49 309.78 1.32 276.52 0.00 Z" />
<path fill="#095" d=" M 179.96 92.92 C 210.98 77.22 246.28 70.18 280.95 72.64 C 317.15 75.02 352.54 87.92 381.87 109.25 C 408.97 128.84 430.92 155.47 444.92 185.84 C 466.26 231.62 468.57 285.79 451.32 333.25 C 440.02 364.78 420.37 393.25 394.99 415.11 C 373.66 433.52 348.32 447.27 321.23 455.03 C 313.72 377.85 306.04 300.70 298.49 223.53 C 273.65 225.53 248.82 227.61 223.98 229.67 C 231.53 306.96 239.20 384.23 246.77 461.52 C 217.03 458.38 188.06 448.25 162.86 432.14 C 138.38 416.59 117.45 395.52 102.03 370.97 C 82.50 340.06 72.03 303.55 72.20 266.99 C 72.20 233.17 81.26 199.41 98.21 170.14 C 117.19 137.19 145.96 109.96 179.96 92.92 Z" />
<path fill="#095" d=" M 507.54 385.43 C 524.49 351.35 533.72 313.58 535.00 275.57 L 535.00 1294.00 L 0.00 1294.00 L 0.00 276.31 C 1.51 316.57 11.89 356.54 30.87 392.12 C 54.84 437.54 92.18 475.75 137.00 500.82 C 172.67 520.87 213.03 532.50 253.91 534.48 C 258.72 582.05 263.25 629.63 268.03 677.20 C 216.58 677.27 165.13 677.19 113.68 677.24 C 113.66 702.16 113.67 727.08 113.67 752.00 C 120.78 752.01 127.89 751.99 135.00 752.01 C 120.83 929.82 106.72 1107.63 92.64 1285.44 C 117.46 1287.98 142.28 1290.52 167.11 1293.05 C 171.38 1240.34 175.45 1187.62 179.72 1134.91 C 264.14 1134.91 348.55 1134.90 432.96 1134.91 C 437.16 1187.62 441.36 1240.32 445.51 1293.03 C 470.35 1290.57 495.19 1287.95 520.03 1285.45 C 505.97 1107.63 491.78 929.82 477.72 752.01 C 484.79 751.99 491.87 752.01 498.96 751.99 C 498.95 727.07 498.97 702.15 498.94 677.22 C 447.00 677.21 395.05 677.25 343.11 677.20 C 338.26 627.39 333.29 577.60 328.45 527.79 C 343.94 524.11 359.13 519.12 373.74 512.77 C 431.49 487.86 479.80 441.88 507.54 385.43 Z" />
<path fill="#095" d=" M 210.07 752.00 C 274.24 752.01 338.41 751.98 402.58 752.02 C 406.52 802.02 410.55 852.02 414.46 902.02 C 342.36 902.06 270.27 902.06 198.17 902.02 C 202.15 852.02 206.14 802.01 210.07 752.00 Z" />
<path fill="#095" d=" M 192.23 976.85 C 268.27 976.82 344.31 976.86 420.35 976.83 C 422.72 1004.57 424.77 1032.33 427.04 1060.08 C 346.58 1060.11 266.11 1060.11 185.65 1060.08 C 187.80 1032.33 190.06 1004.59 192.23 976.85 Z" />
</svg>
